# xmcd CD database file
#
# Track frame offsets:
#	150
#	6531
#	32656
#	56428
#	76698
#	100257
#	125183
#	149529
#	172924
#	195298
#	224325
#	264097
#	290482
#
# Disc length: 4440 seconds
#
# Revision: 1
# Processed by: cddbd v1.5.2PL0 Copyright (c) Steve Scherf et al.
# Submitted via: CDex 1.70beta3
#
DISCID=b311560d
DTITLE=Concerto Moon - Live - Once In A Life Time -
DYEAR=2003
DGENRE=Heavy Metal
TTITLE0=Waiting For Coming Strikes
TTITLE1=Strangers
TTITLE2=From Father To Son
TTITLE3=Cheating Fortune Teller
TTITLE4=Guard You Close
TTITLE5=Climb Up
TTITLE6=King Of The Judas
TTITLE7=No Problem
TTITLE8=We Get Together
TTITLE9=Alone In The Paradise '01
TTITLE10=Over And Over
TTITLE11=Glorious Death
TTITLE12=Change My Heart
EXTD=YEAR: 2003
EXTT0=
EXTT1=
EXTT2=
EXTT3=
EXTT4=
EXTT5=
EXTT6=
EXTT7=
EXTT8=
EXTT9=
EXTT10=
EXTT11=
EXTT12=
PLAYORDER=
